<svg width="40" height="40" viewBox="0 0 40 40" fill="none" xmlns="http://www.w3.org/2000/svg">
<path d="M12 10H28V14.7941H27.218L26.3459 11.7059C26.2857 11.4706 26.2155 11.3039 26.1353 11.2059C26.0752 11.0882 25.9449 11.0196 25.7444 11C25.5439 10.9608 25.203 10.9412 24.7218 10.9412H21.3233V27.6176C21.3233 28.3039 21.3534 28.7059 21.4135 28.8235C21.4737 28.9412 21.6642 29.0196 21.985 29.0588L23.6391 29.2353V30H16.391V29.2353L18.0451 29.0588C18.3659 29.0196 18.5564 28.9412 18.6165 28.8235C18.6767 28.7059 18.7068 28.3039 18.7068 27.6176V10.9412H15.2782C14.817 10.9412 14.4762 10.9608 14.2556 11C14.0551 11.0196 13.9148 11.0882 13.8346 11.2059C13.7744 11.3039 13.7143 11.4706 13.6541 11.7059L12.782 14.7941H12V10Z" fill="#1C4F6D"/>
<rect x="5.5" y="5.5" width="29" height="29" stroke="#1C4F6D"/>
<rect x="5.5" y="5.5" width="3" height="3" stroke="#1C4F6D"/>
<rect x="5.5" y="31.5" width="3" height="3" stroke="#1C4F6D"/>
<rect x="31.5" y="5.5" width="3" height="3" stroke="#1C4F6D"/>
<rect x="31.5" y="31.5" width="3" height="3" stroke="#1C4F6D"/>
</svg>
