<svg width="87" height="80" viewBox="0 0 87 80" fill="none" xmlns="http://www.w3.org/2000/svg">
<g style="mix-blend-mode:screen" opacity="0.7">
<path d="M80.9957 44.7944C69.3231 44.7944 56.1413 57.5108 49.3 65C42.3534 72.6043 53.65 40.8107 58 39.2857C60.9 38.269 58.6217 45.4819 48.575 51.4285C41.4577 55.6412 16.5416 60.3941 15.225 64.2857C13.975 67.9801 19.9359 68.5714 23.2 65.7142C26.9105 62.4663 33.6823 51.0357 36.975 47.1428C40.6 42.8571 43.9234 39.9206 44.95 42.1428C45.9765 44.365 43.3514 47.615 38.425 50.7142C31.6125 55 26.4154 57.102 23.7683 53.1548C21.1212 49.2076 26.553 40.6938 31.1273 40.0656C34.1314 39.653 35.0772 42.0113 27.1774 48.4972C19.2776 54.9831 10.7195 58.226 10.7195 58.226" stroke="white" stroke-width="1.5" stroke-linecap="round"/>
</g>
<g style="mix-blend-mode:screen" opacity="0.7">
<path d="M5.7818 40.543C21.75 38.9544 30.2523 27.8375 34.072 23.6514C39.3274 17.892 40.6039 8.38114 35.525 8.95435C30.446 9.52757 20.3 16.8115 13.837 30.0867C9.31653 39.3719 6.89549 50.4674 7.24263 57.2276" stroke="url(#paint0_linear_628_5148)" stroke-width="1.5" stroke-linecap="round"/>
</g>
<path d="M30.4499 22.5258C32.1219 22.5258 35.205 20.3829 36.2499 19.6686L33.3499 23.9544C31.8999 23.2401 28.7779 22.5258 30.4499 22.5258Z" fill="#19C0DA"/>
<path d="M26.5427 28.076C27.5474 28.1527 29.7895 27.176 30.4499 26.8115L27.7013 29.4092C26.8964 28.9329 25.538 27.9993 26.5427 28.076Z" fill="#1BC3DA"/>
<path d="M13.7749 33.9544C11.4549 36.8115 10.3916 38.9544 10.1499 39.6687L24.6499 21.8115C23.1999 22.5258 16.0949 31.0972 13.7749 33.9544Z" fill="#26CDDB"/>
<defs>
<linearGradient id="paint0_linear_628_5148" x1="19.0446" y1="62.0473" x2="0.0463405" y2="54.0238" gradientUnits="userSpaceOnUse">
<stop stop-color="#006CAC"/>
<stop offset="1" stop-color="#19A8B8"/>
</linearGradient>
</defs>
</svg>
