<svg width="40" height="40" viewBox="0 0 40 40" fill="none" xmlns="http://www.w3.org/2000/svg">
<path d="M20.2252 32.8069C20.1343 32.9954 19.8658 32.9954 19.7749 32.8069L14.0419 20.9219C13.5691 19.9416 13.4903 18.8173 13.8219 17.7807L16.0316 10.8726C16.0867 10.7003 16.1147 10.5204 16.1147 10.3395L16.1147 7.66667C16.1147 7.5286 16.2267 7.41667 16.3647 7.41667L23.6353 7.41667C23.7733 7.41667 23.8853 7.5286 23.8853 7.66667L23.8853 10.3395C23.8853 10.5204 23.9133 10.7003 23.9684 10.8726L26.1781 17.7807C26.5097 18.8173 26.4309 19.9416 25.9581 20.9219L20.2252 32.8069Z" stroke="#1C4F6D" stroke-width="1.5" stroke-linejoin="round"/>
<path d="M20.9167 18.3332C20.9167 18.8394 20.5063 19.2498 20 19.2498C19.4938 19.2498 19.0834 18.8394 19.0834 18.3332C19.0834 17.8269 19.4938 17.4165 20 17.4165C20.5063 17.4165 20.9167 17.8269 20.9167 18.3332Z" fill="#1C4F6D" stroke="#1C4F6D" stroke-width="1.5"/>
<path d="M20 18.3335V31.6668" stroke="#1C4F6D" stroke-width="1.5"/>
<path d="M9 33H31" stroke="#1C4F6D" stroke-width="1.5" stroke-linecap="round"/>
<path d="M16 10.5H24" stroke="#1C4F6D" stroke-width="1.5" stroke-linecap="round"/>
</svg>
