<svg width="16" height="20" viewBox="0 0 16 20" fill="none" xmlns="http://www.w3.org/2000/svg">
<path d="M0 0H16V4.79412H15.218L14.3459 1.70588C14.2857 1.47059 14.2155 1.30392 14.1353 1.20588C14.0752 1.08823 13.9449 1.01961 13.7444 0.999999C13.5439 0.960784 13.203 0.941177 12.7218 0.941177H9.32331V17.6176C9.32331 18.3039 9.35338 18.7059 9.41353 18.8235C9.47369 18.9412 9.66416 19.0196 9.98496 19.0588L11.6391 19.2353V20H4.39098V19.2353L6.04511 19.0588C6.36592 19.0196 6.55639 18.9412 6.61654 18.8235C6.67669 18.7059 6.70677 18.3039 6.70677 17.6176V0.941177H3.2782C2.81704 0.941177 2.47619 0.960784 2.25564 0.999999C2.05514 1.01961 1.91479 1.08823 1.83459 1.20588C1.77444 1.30392 1.71429 1.47059 1.65414 1.70588L0.781955 4.79412H0V0Z" fill="#1C4F6D"/>
</svg>
